<svg xmlns="http://www.w3.org/2000/svg" width="516.2" height="516.2"><path d="M206 132c4-5 4-13-1-17-22-19-80-60-150-22 0 0-98 51-33 178 49 80 173 88 226 170 3 6 6 5 6-1l4-68c0-7-4-15-9-19s-5-12-1-17l21-26c4-5 2-11-4-14l-41-21c-6-3-7-9-2-13l45-37c5-5 4-10-2-13l-85-34c-6-2-7-8-3-13l29-33z"/><path d="M304 115c-3 6-10 14-15 17l-36 25c-6 4-6 10 0 14l77 53c6 3 6 9 0 12l-49 28c-6 3-6 9-1 13l34 24c5 4 5 11 0 15l-29 24c-5 4-6 12-2 17l2 1c4 5 5 15 3 21-4 15-13 42-17 61-1 6 1 7 4 1 60-98 130-64 211-162 21-22 56-105 0-167-52-58-146-52-182 3z"/></svg>
